<?xml version="1.0" standalone="no"?>
<!DOCTYPE svg PUBLIC "-//W3C//DTD SVG 20010904//EN"
 "http://www.w3.org/TR/2001/REC-SVG-20010904/DTD/svg10.dtd">
<svg version="1.0" xmlns="http://www.w3.org/2000/svg"
 width="1920.000000pt" height="1920.000000pt" viewBox="0 0 1920.000000 1920.000000"
 preserveAspectRatio="xMidYMid meet">
<metadata>
Created by potrace 1.14, written by Peter Selinger 2001-2017
</metadata>
<g transform="translate(0.000000,1920.000000) scale(0.100000,-0.100000)"
fill="#000000" stroke="none">
<path d="M5483 15344 c-410 -59 -791 -251 -1088 -549 -241 -241 -416 -550
-500 -885 -57 -227 -55 -140 -55 -2244 l0 -1936 2815 0 2815 0 0 2815 0 2815
-1947 -1 c-1573 -1 -1966 -4 -2040 -15z m1697 -1704 l0 -540 540 0 540 0 0
-510 0 -510 -540 0 -540 0 0 -540 0 -540 -510 0 -510 0 0 540 0 540 -540 0
-540 0 0 510 0 510 540 0 540 0 0 540 0 540 510 0 510 0 0 -540z"/>
<path d="M9730 12545 l0 -2815 2815 0 2815 0 0 1938 c0 1652 -3 1952 -15 2041
-59 412 -249 796 -540 1086 -252 252 -554 424 -896 511 -220 55 -143 54 -2241
54 l-1938 0 0 -2815z m3041 1675 c115 -35 230 -132 288 -240 157 -295 -1 -650
-326 -735 -311 -81 -622 164 -625 490 -3 346 329 589 663 485z m1430 -1620
c-1 -272 -1 -501 -1 -508 0 -10 -321 -12 -1587 -10 l-1588 3 -3 508 -2 507
1591 -2 1590 -3 0 -495z m-1492 -655 c123 -16 286 -135 350 -254 182 -341 -60
-751 -444 -751 -307 0 -543 269 -503 575 17 134 116 290 227 359 61 38 140 67
205 75 60 8 78 8 165 -4z"/>
<path d="M3840 7534 c0 -2104 -2 -2017 55 -2244 84 -335 259 -644 500 -885
252 -253 553 -424 896 -511 220 -55 143 -54 2242 -54 l1937 0 0 2815 0 2815
-2815 0 -2815 0 0 -1936z m3213 254 l382 382 360 -360 360 -360 -383 -382
-382 -383 382 -382 383 -383 -360 -360 -360 -360 -382 382 -383 383 -383 -383
-382 -382 -360 360 -360 360 378 378 c207 207 377 382 377 387 0 5 -170 180
-377 387 l-378 378 360 360 360 360 382 -382 383 -383 383 383z"/>
<path d="M9730 6655 l0 -2815 1938 0 c2098 0 2021 -1 2241 54 343 87 644 258
896 511 291 290 481 674 540 1086 12 89 15 389 15 2042 l0 1937 -2815 0 -2815
0 0 -2815z m4471 795 l-1 -505 -1590 -3 -1590 -2 0 510 0 510 1591 -2 1590 -3
0 -505z m-1 -1530 l0 -505 -1587 0 -1588 0 -3 508 -2 507 1590 -2 1590 -3 0
-505z"/>
</g>
</svg>
